<svg id="Capa_1" data-name="Capa 1" xmlns="http://www.w3.org/2000/svg" viewBox="0 0 427.02 77.44"><defs><style>.cls-1{fill:#d5d5d5;}.cls-2{fill:#0081ba;}.cls-3{fill:#ccc;}</style></defs><path class="cls-1" d="M462,251.94c0,8.33-.08,16.66.06,25,0,2.93-.77,4.27-3.94,4.12a122.36,122.36,0,0,0-13,0c-3.42.19-4.21-1.25-4.18-4.39.14-13.33.06-26.66.06-40,0-1.17,0-2.34,0-3.5-.06-1.67-.69-3.06-2.59-3s-2.39,1.55-2.43,3.19c0,1.17,0,2.33,0,3.5,0,12.83-.23,25.67.12,38.49.13,4.82-1.54,6.08-6,5.68a72,72,0,0,0-11,0c-3.36.22-4.25-1.16-4.22-4.35.15-12.49.08-25,0-37.49a27.3,27.3,0,0,0-.57-5.41c-.35-1.74-.62-4-3.22-3.55-2.15.35-2.15,2.24-2.17,3.94s0,3.67,0,5.5c0,12.33-.08,24.66.06,37,0,3.16-.79,4.57-4.19,4.37a100.1,100.1,0,0,0-12.49,0c-3.65.24-4.47-1.29-4.44-4.64.14-16,0-32,.08-48,0-8.56,4.06-14.71,12-17.84s15.46-2.21,21.76,3.74c2.54,2.39,3.76,3.38,6.62.11,5.07-5.8,15-7.16,22.7-3.91s10.74,9.46,11,17.41c0,.34,0,.67,0,1Z" transform="translate(-143 -206)"/><path class="cls-1" d="M232,245.58c0-10.5,0-21,0-31.48,0-1.72-.56-4.11,2.32-4,12.77.38,25.67-1.55,38.31,1.34,21.13,4.83,31.19,22.23,25.66,44-4.9,19.31-22.8,27-39.93,25.56a2.24,2.24,0,0,1-2.31-2.59c0-5.17,0-10.33,0-15.49-.05-3.53,2.48-2.86,4.54-2.91,6-.12,11.88-1.12,15.19-6.76,4.82-8.18,3.7-21.45-11.93-23.19C253,228.85,253,228.87,253,239.6c0,12.33-.11,24.65.08,37,0,3.56-1.16,4.69-4.6,4.47a95.94,95.94,0,0,0-12,0c-3.46.21-4.64-1-4.57-4.5C232.16,266.23,232,255.9,232,245.58Z" transform="translate(-143 -206)"/><path class="cls-1" d="M473.93,237c0-7.66.1-15.33-.05-23-.06-3,.86-4.22,4-4.07a125.08,125.08,0,0,0,13,0c3.45-.2,4.17,1.31,4.14,4.41-.13,13.33-.06,26.65-.05,40a33.18,33.18,0,0,0,.12,4,4,4,0,0,0,3.11,3.5c1.88.5,3.21-.46,4.26-1.9,1.46-2,1.53-4.3,1.52-6.67,0-13,.07-26-.07-39,0-3.2.88-4.52,4.22-4.33a98.21,98.21,0,0,0,12.49,0c3.68-.25,4.44,1.34,4.41,4.66-.15,13.82.35,27.66-.16,41.46-.87,23.39-18.52,30.28-36.09,25.6-8.35-2.23-14.59-11.77-14.76-21.67-.14-7.66,0-15.32,0-23Z" transform="translate(-143 -206)"/><path class="cls-1" d="M570,220.33c0,1.66-.07,3.33,0,5,.15,2.73-.08,4.44-3.71,4.95-5.35.76-6.76,5.4-3.57,10.8a42.19,42.19,0,0,1,5.65,13.71c1.64,8.81-1.34,16.18-7.78,21.88-6.9,6.1-15.07,8.11-24.09,5a6.86,6.86,0,0,1-2.19-1.15c-1.73-1.46-1.84-17.81-.22-19.37,1-1,1.86-.1,2.67.25,2.94,1.27,5.24.08,7.14-2s1.21-4.37,0-6.49c-3.84-6.9-6.9-13.89-6-22.17,1.49-14.52,14.35-23.91,29.61-21.64,1.8.26,2.46,1.5,2.47,3.19,0,2.66,0,5.32,0,8Z" transform="translate(-143 -206)"/><path class="cls-2" d="M195.41,229.05c8.07,0,15.6,0,23.13-.05,1.79,0,2.24,1,2.77,2.18,4,9.13,3.41,18.21-.34,27.23a28.25,28.25,0,0,1-3.75,6.79Z" transform="translate(-143 -206)"/><path class="cls-2" d="M148.78,262.16h42l-5.47,9.72c-1.67,3-3.38,5.95-5,9a2.3,2.3,0,0,1-2.62,1.53c-13-1.77-22.78-7.89-28.7-19.33A3.37,3.37,0,0,1,148.78,262.16Z" transform="translate(-143 -206)"/><path class="cls-2" d="M202.84,247.21c4,7,7.8,13.6,11.59,20.13.7,1.2-.18,1.92-.73,2.69-4.64,6.45-11.32,9.93-19,11.72a44.08,44.08,0,0,1-12.37,1.16C189.12,271.05,195.82,259.41,202.84,247.21Z" transform="translate(-143 -206)"/><path class="cls-2" d="M219.09,226.16h-43c1.37-2.41,2.65-4.69,4-7,2.12-3.69,4.26-7.35,6.37-11,.57-1,1.06-1.82,2.57-1.59,12.85,2,23,7.92,29.85,18.7A4.16,4.16,0,0,1,219.09,226.16Z" transform="translate(-143 -206)"/><path class="cls-2" d="M151.81,222.1l11.8,19.66L185,206.06S162.67,204.16,151.81,222.1Z" transform="translate(-143 -206)"/><path class="cls-2" d="M149.43,224.67,171,259.73l-24.22-.38S136.7,241.77,149.43,224.67Z" transform="translate(-143 -206)"/><path class="cls-3" d="M344.14,209.82a34.42,34.42,0,0,1,25.47,10.84,37.07,37.07,0,0,1-.08,52,36.8,36.8,0,0,1-51.89-52.2A36.32,36.32,0,0,1,344.14,209.82Zm-.61,20.66a14.51,14.51,0,0,0-10.91,4.72,16.64,16.64,0,0,0,0,22.81,15,15,0,0,0,21.81,0,16.82,16.82,0,0,0,0-22.86A14.51,14.51,0,0,0,343.53,230.48Z" transform="translate(-143 -206)"/></svg>